# xmcd CD database file
#
# Track frame offsets:
#	150
#	16300
#	34800
#	57682
#	78057
#	94290
#	119122
#	135957
#	164142
#	179897
#
# Disc length: 2583 seconds
#
# Revision: 0
# Processed by: cddbd v1.5.2PL0 Copyright (c) Steve Scherf et al.
# Submitted via: CDex 1.70beta3
#
DISCID=8f0a150a
DTITLE=Paul Motian and the Electric Bebop Band - Holiday for Strings
DYEAR=2001
DGENRE=Jazz
TTITLE0=Arabesque
TTITLE1=5 Miles to Wrentham
TTITLE2=Morpion
TTITLE3=Luteous Pangolin
TTITLE4=Look to the Black Wall
TTITLE5=Holiday for Strings
TTITLE6=Endgame
TTITLE7=It Never Entered My Mind
TTITLE8=Roundup
TTITLE9=Oh, What a Beautiful Morning
EXTD=YEAR: 2001
EXTT0=
EXTT1=
EXTT2=
EXTT3=
EXTT4=
EXTT5=
EXTT6=
EXTT7=
EXTT8=
EXTT9=
PLAYORDER=
